<?xml version="1.0" encoding="utf-8"?>
<!-- Generator: Adobe Illustrator 23.0.1, SVG Export Plug-In . SVG Version: 6.00 Build 0)  -->
<svg version="1.1" id="Layer_1" xmlns="http://www.w3.org/2000/svg" xmlns:xlink="http://www.w3.org/1999/xlink" x="0px" y="0px"
	 viewBox="0 0 500 500" style="enable-background:new 0 0 500 500;" xml:space="preserve">
<style type="text/css">
	.st0{fill:#898989;}
</style>
<g>
	<path class="st0" d="M343.5,306.6"/>
	<path class="st0" d="M377.5,159.6c-8.4-8.2-17.9-11.1-27.9-14.2c-9.7-3-19.7-6.1-31.9-14.6c-17.5-12.2-31.2-30.2-40.8-53.3
		L253,19.7l2.3,62.4c3.1,85.3-3.8,168.8-20.7,248.1c-0.2,0.9-0.4,1.8-0.6,2.6c-12.4-5.7-28.6-10.3-47.7-9.7
		c-36.3,1.2-60,21.2-69.2,28.9c-21.7,18.3-54.6,58-39.9,91c5.3,12.1,16.5,21.6,32.2,27.6c11.1,4.2,23.5,6.3,36,6.3
		c6.8,0,23.2-0.7,42.1-8.7c1.2-0.5,22.6-9.7,39.2-27.7c16.7-18,24-39.8,32.6-101.8c6.5-47.4,9-83.8,12.5-130.2
		c2.7-36.1,5.1-65.5,6.6-84.1c9.7,12.1,19.4,19.9,26.3,24.7c15.1,10.6,27.9,14.5,38.2,17.7c8.3,2.6,14.3,4.4,18.8,8.8
		c9.6,9.3,20,38.7-18.3,130.9l10.4,4.3l10.4,4.3C397.8,234.5,402.1,183.6,377.5,159.6z"/>
</g>
</svg>
