<svg xmlns="http://www.w3.org/2000/svg" viewBox="0 0 66.24 66.1"><defs><style>.cls-1{fill:#fff;}</style></defs><title>profile</title><g id="Layer_2" data-name="Layer 2"><g id="Layer_1-2" data-name="Layer 1"><path class="cls-1" d="M33.05,0A33.05,33.05,0,1,1,0,33.08,33,33,0,0,1,33.05,0Zm6.5,36C46.94,40,55,43.16,54.27,53.75,62.8,46,65.35,31.55,60.45,21,54.66,8.56,42.65,1.81,29.24,3.48c-13,1.63-23.06,11.42-25.65,25C2,37.05,6.38,50.31,12,53.25c-.21-7.07,3.49-11.57,9.44-14.61,1.74-.88,3.39-1.92,5.29-3l-2.94-3.58a14.59,14.59,0,0,1-3.58-9.35c0-5.31,1.93-9.6,6.54-12.38,4.26-2.57,8.66-2,12.81.29,6.65,3.68,8.78,13.51,4.37,19.88C42.68,32.26,41.25,33.89,39.55,36ZM34,12.49c-4.7,0-7.63,1.87-9.42,5.26a10.46,10.46,0,0,0,.52,11.14c.95,1.45,2.2,2.71,3.3,4.07,2,2.54,1.67,4.76-1.14,6.46-2.21,1.33-4.52,2.48-6.73,3.81a11.77,11.77,0,0,0-5.21,13.23,2.73,2.73,0,0,0,1.06,1.26c9.48,6.85,24.51,6.85,33.79,0a2.75,2.75,0,0,0,1.08-1.25,12.19,12.19,0,0,0-4.87-12.73c-2.26-1.41-4.66-2.58-6.94-3.95q-4.19-2.52-1.34-6.47c1.07-1.49,2.42-2.78,3.39-4.32A10.58,10.58,0,0,0,42,17.84,9.5,9.5,0,0,0,34,12.49Z"/></g></g></svg>