<svg xmlns="http://www.w3.org/2000/svg" viewBox="0 0 507.32 122.82"><defs><style>.cls-1{fill:#231f20;}</style></defs><title>title</title><g id="Layer_2" data-name="Layer 2"><g id="Layer_1-2" data-name="Layer 1"><path class="cls-1" d="M25.32,98.11c0-1.18,0-2.35.05-3.5a82.59,82.59,0,0,1,1.78-12.27,180,180,0,0,1,6.28-25.26q.76-2.67,1.83-3L40,53q2.16-.55,19.76-1.5c1.37-.15,2.7-.35,4-.61A3.34,3.34,0,0,0,66.18,49a8.18,8.18,0,0,0,.95-3.67,7.92,7.92,0,0,0-.95-3.66A4.45,4.45,0,0,0,62,39.09l-.83,0q-2.73-.6-20.1,2.34a3,3,0,0,1-.78.11,1.15,1.15,0,0,1-.64-.17c-.17-.11-.25-.22-.25-.33a7.89,7.89,0,0,1,.39-1.61L47.25,22.1a18.21,18.21,0,0,0,1.61-5.28,1.32,1.32,0,0,1,1.06-1.11Q67.46,12,79,12.05a69.48,69.48,0,0,1,11,.89,18.79,18.79,0,0,1,11.49,5.16,6,6,0,0,0,4.5,2.28,8.72,8.72,0,0,0,2.28-.45c1-.29,1.79-1.39,2.38-3.27a8.89,8.89,0,0,0,.28-2.22,8.38,8.38,0,0,0-1.94-5.33Q105.5,4.49,97.94,2.39A38.15,38.15,0,0,0,88.62.72a3.17,3.17,0,0,1-2-.72H75.4a4.79,4.79,0,0,1-2.66.72A163.53,163.53,0,0,0,10.44,19.1a42.06,42.06,0,0,0-9,6.22l-.45.39a4.81,4.81,0,0,0-.66,1.16,1.05,1.05,0,0,0-.28.78,2,2,0,0,0,.28.83c.18.37,1.07.56,2.66.56q4,0,15.22-3.78Q32.32,20.16,34,19.82c.07,0,.16.07.27.2a.59.59,0,0,1,.17.36,5.44,5.44,0,0,1-.33,1.5q-4.78,11.27-8.78,22.87l-.27.72a2.27,2.27,0,0,1-1.25,1.47c-.61.28-1.2.57-1.75.87a26.65,26.65,0,0,0-7.66,4.44c-1.11,1.18-1.67,2.11-1.67,2.77A1.89,1.89,0,0,0,14,56.86a8.19,8.19,0,0,0,3.39.72l1.22-.06c.67,0,1.37-.05,2.11-.05,0,0,.11,0,.22.14a.66.66,0,0,1,.22.41,25.16,25.16,0,0,1-.61,3.11A124.49,124.49,0,0,0,16,92.56L16.1,96a21,21,0,0,0,9.39,16.93,5.85,5.85,0,0,0,3.05,1.34,2.15,2.15,0,0,0,1.28-.45,1.61,1.61,0,0,0,.61-1.38c0-1.19-1-3.39-2.89-6.61A14.49,14.49,0,0,1,25.32,98.11Z"/><path class="cls-1" d="M85.51,62.69a1.55,1.55,0,0,0-.84-1.56,13.26,13.26,0,0,0-3.11-1.05,9.91,9.91,0,0,1-2.16-.7,5.37,5.37,0,0,0-2.17-.47,4.61,4.61,0,0,0-1.38.22q-8.38,2.38-18.33,11.16c-.63.52-1.26,1-1.89,1.45h-.05l-.22-.12a.32.32,0,0,1-.17-.27q1.11-2,2.17-3.86a7.65,7.65,0,0,0,1-3.8,5.71,5.71,0,0,0-2.22-4.95,5.5,5.5,0,0,0-3.33-1.05h-.5c-2.41.33-4.44,1.89-6.11,4.66Q34.47,81.85,32.7,100.22a8.9,8.9,0,0,0-.11,1.39,9,9,0,0,0,.5,2.94A5.42,5.42,0,0,0,38.42,108a5.38,5.38,0,0,0,4.78-2.55,23.72,23.72,0,0,0,1.94-3.22.22.22,0,0,1,.11-.22Q51.13,90.72,65,76.29l.06-.11c1.77-1.78,2.85-2.7,3.22-2.78l.23,0,0,.21A4,4,0,0,1,68,75s0,0,0,.06q-2.4,3.44-4.39,6.72a4.48,4.48,0,0,0-.67,2.27A4.68,4.68,0,0,0,64,87a2.48,2.48,0,0,0,2,1.11,6.16,6.16,0,0,0,2.28-.56,25,25,0,0,0,6.33-4.16A41.78,41.78,0,0,0,85.17,65.57,17.73,17.73,0,0,0,85.51,62.69ZM68.85,73.18h-.22l-.09.06,0-.06c0-.18.07-.28.22-.28h.16C68.9,73.05,68.89,73.14,68.85,73.18Z"/><path class="cls-1" d="M105.61,35a1.44,1.44,0,0,0-1.23.77,32.62,32.62,0,0,0-3.72,6.11,15.18,15.18,0,0,0-1.55,5.44,4.21,4.21,0,0,0,1.39,3.5,6.22,6.22,0,0,0,3.83,1.39,3.77,3.77,0,0,0,2.5-1A64.46,64.46,0,0,0,112.32,45l.84-.94a3.81,3.81,0,0,0,1-1.83,1.71,1.71,0,0,0-.22-1,21.81,21.81,0,0,0-4.39-4.1Q106.44,35,105.61,35Z"/><path class="cls-1" d="M292.66,59.91a15.88,15.88,0,0,0-5.21,1.5l-.12.05a80.34,80.34,0,0,0-13.93,7q-4.5,2.61-4.83,2.67c-.6,0-.89-.36-.89-1.06a16.44,16.44,0,0,1,1.19-5,25.94,25.94,0,0,1,3.19-6.14c1.15-1.63,2.28-2.44,3.39-2.44a7.64,7.64,0,0,1,2.33.66,3.26,3.26,0,0,0,1.28.28,3.65,3.65,0,0,0,1.61-.5,3,3,0,0,0,1.39-1.55,5.42,5.42,0,0,0,.44-2.06l-.05-.78a5.76,5.76,0,0,0-3.28-4.27,8.59,8.59,0,0,0-4-1,12.49,12.49,0,0,0-8,3A31.77,31.77,0,0,0,257.07,63a16.46,16.46,0,0,0-1.44,6.67,20.56,20.56,0,0,0,1.2,7c-.9,1.24-1.85,2.61-2.87,4.13-.58.89-1.15,1.75-1.73,2.59a50.76,50.76,0,0,0-11.71,13.86,4.06,4.06,0,0,1-1.94.76,4.48,4.48,0,0,1-2.8-.91,3.72,3.72,0,0,1-1.42-2.58q-.44-4.78-.44-9.61a3.73,3.73,0,0,1,.78-2.19l1.38-1.75a164.44,164.44,0,0,0,23.16-40c.33-.85.63-1.72.89-2.61l.33-1.16a14.18,14.18,0,0,0,.56-3.89,10.54,10.54,0,0,0-2.67-6.44,9.67,9.67,0,0,0-5.27-3.61,13.84,13.84,0,0,0-2.5-.22l-1.5.05q-8,1.23-13.55,9.77a88.91,88.91,0,0,0-11,25.27q-.34,1.05-1.11,1.05l-.34-.05a19.6,19.6,0,0,0-5.22-.56,13.64,13.64,0,0,0-4.22.95,22.93,22.93,0,0,0-6.05,3.1,41.35,41.35,0,0,0-8.16,7.06A40.73,40.73,0,0,0,190,86.17c-.24.82-.42,1.65-.58,2.48-.68,1.07-1.38,2.13-2.09,3.19a26.41,26.41,0,0,1-5.22,5.77,3.48,3.48,0,0,1-2.5.83c-1.37,0-2.05-.63-2.05-1.88a20.07,20.07,0,0,1,.55-3.45,127.64,127.64,0,0,1,11.72-25.48l.39-.5a6.31,6.31,0,0,0,1.11-3.56,6.57,6.57,0,0,0-2.17-4.6,5.92,5.92,0,0,0-4.11-1.5,4.85,4.85,0,0,0-3.49,1.38,21.67,21.67,0,0,1-4,2.78l-.56.45a73.29,73.29,0,0,0-12.27,9l-1.16.77-.23.11c-.11,0-.18,0-.22-.08l-.11-.19a.48.48,0,0,1-.05-.23,29.3,29.3,0,0,1,3.27-5.44A7.52,7.52,0,0,0,167.4,62a5.69,5.69,0,0,0-5.6-6,6.51,6.51,0,0,0-5.56,3.16,82.62,82.62,0,0,0-8.84,17.21c-1.27,1.32-2.49,2.63-3.65,4q-9.39,11-16.32,15.32A13.55,13.55,0,0,1,120,98a6.94,6.94,0,0,1-4.56-1.67c-.29-.29-.44-.52-.44-.66a3,3,0,0,1,0-.39c0-.15.21-.3.58-.45a3.91,3.91,0,0,1,1.5-.44,39.73,39.73,0,0,0,11.33-5,29.56,29.56,0,0,0,8.21-7.55A25.66,25.66,0,0,0,141.47,71a14.52,14.52,0,0,0,.28-2.83A13.55,13.55,0,0,0,139,60a9.23,9.23,0,0,0-2.06-1.89,7.75,7.75,0,0,0-2.41-.81,23.32,23.32,0,0,0-5.09-.47q-7.54,0-14.43,6.5-8.28,7.88-11.88,21.21c-.12.41-.2.8-.3,1.19a42.7,42.7,0,0,1-9.36,11.13,4,4,0,0,1-2.34.78,2,2,0,0,1-1.3-.5,1.6,1.6,0,0,1-.58-1.28,17.69,17.69,0,0,1,.66-3.66q2.51-9.11,9.66-21.32l1.34-2.28a9.24,9.24,0,0,0,1.44-4.33,5.53,5.53,0,0,0-3.55-5.55,6.33,6.33,0,0,0-2.28-.45,5.85,5.85,0,0,0-3.72,1.39,8.72,8.72,0,0,0-2.33,2.72Q81.39,78.07,78.57,89.84A27.09,27.09,0,0,0,77.68,96q0,8.55,7.88,11.6a15.42,15.42,0,0,0,5.78,1h.22a12.52,12.52,0,0,0,6.72-2,26.49,26.49,0,0,0,6.17-5.76,18.41,18.41,0,0,0,4.65,4.87,17,17,0,0,0,10.44,3.22h.61a19.8,19.8,0,0,0,7-1.33,34.21,34.21,0,0,0,12.1-8.33c1-1.07,2-2.18,3-3.3,0,.36-.08.73-.1,1.08v4.11a6.61,6.61,0,0,0,2.61,5.38,5.65,5.65,0,0,0,3.55,1.11,5.48,5.48,0,0,0,4.83-2.55,20.41,20.41,0,0,0,1.56-3.28q3.78-9.37,14.1-20.87.56-.72.75-.75l.31,0c.18,0,.27.15.27.44a8.75,8.75,0,0,1-.47,1.45c-.2.48-.4,1-.58,1.61s-.37,1.2-.56,1.83q-2.44,6.78-2.44,10.49,0,8.57,6.55,12a15.24,15.24,0,0,0,6.67,1.61,15,15,0,0,0,7.55-2.17,17.28,17.28,0,0,0,4.83-4.16l.13-.18a11,11,0,0,0,9.14,4.12q7.83,0,19.32-9.83a8.9,8.9,0,0,1,2.5-1.89c.44,0,.8.56,1.05,1.67l.73,2.28a14.75,14.75,0,0,0,6.05,7,14.19,14.19,0,0,0,6.57,2c0,.18,0,.35,0,.53v.83a13.74,13.74,0,0,0,2.61,7.94,11.59,11.59,0,0,0,9.94,5.11,16.71,16.71,0,0,0,5.5-.95A25.62,25.62,0,0,0,270,109.05a31.6,31.6,0,0,0,2.72-21l-.44-1.94c-.23-1-.5-2.07-.84-3.11a5.1,5.1,0,0,1-.38-1.66,2.41,2.41,0,0,1,1.27-1.84A2.43,2.43,0,0,0,273,79l2.39-1.88,14.65-10.55q4-2.94,4.78-4.61l.05-.17a.65.65,0,0,0,.12-.39Q295,59.91,292.66,59.91Zm-54.74-5.39.72-1.77a69.91,69.91,0,0,1,6.83-13.16c.63-1,1.07-1.45,1.33-1.45.08,0,.11.08.11.23a6.21,6.21,0,0,1-.55,1.72,176.33,176.33,0,0,1-10.77,21.76,2.58,2.58,0,0,1-.5.34s-.09,0-.14-.11a.37.37,0,0,1-.09-.23A73.29,73.29,0,0,1,237.92,54.52ZM127.76,69l1-.61.33-.11c.37,0,.56.16.56.5a6.65,6.65,0,0,1-.23,2,17.65,17.65,0,0,1-5,8,43.27,43.27,0,0,1-7.77,5.69h-.45l-.16-.11a.82.82,0,0,1-.17-.22l0-.11V83.9A24.58,24.58,0,0,1,127.76,69Zm94.89,2.89-.11,1.39v4.44a3.74,3.74,0,0,1-1.17,2.72,93.78,93.78,0,0,1-12.55,11.66,27.2,27.2,0,0,1-6.72,3.83,3.8,3.8,0,0,1-1.16.33,1.09,1.09,0,0,1-1.11-.89l-.06-.5a9.59,9.59,0,0,1-.27-2.27,24.35,24.35,0,0,1,.53-3.68q1.42-3.31,2.66-7A38.17,38.17,0,0,1,211.38,71,20.48,20.48,0,0,1,217,67.18a6.18,6.18,0,0,1,2.78-.66c2,0,3.05.57,3.05,1.72S222.72,70.59,222.65,71.85Zm35.81,34.2a14.43,14.43,0,0,1-6.94,5.22,5.74,5.74,0,0,1-1.33.28h-.45a1.65,1.65,0,0,1-.83-.23,2.86,2.86,0,0,1-1-2.55l.11-.89a12.48,12.48,0,0,1,1.06-3.88l.5-1c.18-.41.39-.81.6-1.21a43.8,43.8,0,0,0,3.78-5c.73-1.09,1.42-2.19,2.1-3.29a48.23,48.23,0,0,1,3.62-3.49,1,1,0,0,1,.73-.33.63.63,0,0,1,.61.33,15.52,15.52,0,0,1,.88,5.5A20.72,20.72,0,0,1,258.46,106.05Z"/><path class="cls-1" d="M506.54,70.29a1.73,1.73,0,0,0-.94-.33,2.65,2.65,0,0,0-1.67.67,15.6,15.6,0,0,0-3.55,3.27q-3.94,5.16-7.94,10.72l-4.11,5.77c-1.15,1.45-2.37,2.87-3.67,4.28-1.88,2-3.85,3-5.88,3-2.41,0-3.61-.78-3.61-2.33a18.1,18.1,0,0,1,1.05-5c.08-.23.15-.48.23-.78a101.36,101.36,0,0,1,7.05-17.44l.22-.38c.48-.93.94-1.87,1.39-2.84a7.26,7.26,0,0,0,.39-2.33,7.48,7.48,0,0,0-1.11-3.5q-1.39-2.39-4.95-2.38a7,7,0,0,0-4.83,2.38,20.73,20.73,0,0,1-1.94,1.73q-2.84,1.94-6.16,4.55l-1.34.83-.11-.05h-.16l-.11-.34c.48-.92,1-1.85,1.61-2.77a7.92,7.92,0,0,0,1.22-4.28,4.73,4.73,0,0,0-2.17-4,4.48,4.48,0,0,0-2.55-.83c-1.19,0-3,.83-5.33,2.5l-3.17,2a72.61,72.61,0,0,0-13.71,11l-2.22,2.22h0a1.4,1.4,0,0,1-.19-.68,44.47,44.47,0,0,1,2.94-5.61A31.5,31.5,0,0,0,443.13,66a7.9,7.9,0,0,0,.89-3.55,4.9,4.9,0,0,0-2.11-4.5,4.32,4.32,0,0,0-2.22-.61,6.28,6.28,0,0,0-1.17.11,8.75,8.75,0,0,0-5.1,4.28l-.5.88q-3.72,6.34-7.08,12.88a7.19,7.19,0,0,0-1.14.73,32.55,32.55,0,0,0-5.22,5.55l-1.61,1.89Q413,89.56,412,90.5c-.33.45-.65.67-.94.67s-.62-.39-.62-1.17c0-1.55.73-3.53,2.17-5.94a7,7,0,0,0,1.06-2.61,2.46,2.46,0,0,0-.23-1,7.7,7.7,0,0,0-2.61-3.72A7.53,7.53,0,0,0,406.21,75a3.8,3.8,0,0,0-3.33,1.83,29.64,29.64,0,0,0-4.06,9.94,7.28,7.28,0,0,0-.11,1.22,5.53,5.53,0,0,1-.11,1.17c-.15.82-1,1.78-2.5,2.89l-6.66,5.44c-1,.92-1.68,1.39-2.05,1.39a.85.85,0,0,1-.75-.28,3.32,3.32,0,0,1-.2-1.5,12.74,12.74,0,0,1,.39-3.11q3.39-13.38,12.61-20.49l.72-.55a4.9,4.9,0,0,1,2.22-1.34,6,6,0,0,1,2,.39,6.09,6.09,0,0,0,5.49-.61,5.31,5.31,0,0,0,2.34-4.77c0-1.93-1-3.82-3-5.69a8.89,8.89,0,0,0-6-2.81,8.5,8.5,0,0,0-4.66,1.39,72.43,72.43,0,0,0-6.36,4.6q-4.94-1.71-14.63-1.71c-.7-.08-1.06-.43-1.06-1.06a12.94,12.94,0,0,1,1.12-2.88q6-13.11,11.49-26.49a46.75,46.75,0,0,0,4-13,1.23,1.23,0,0,1,1.33-1.22q3.33.11,12.05.66h.94a3.11,3.11,0,0,0,3.06-1.94A10.17,10.17,0,0,0,411,8.66a3.24,3.24,0,0,0-2.6-2.22q-3.51-.23-10.83-.28-4.89,0-7.89.17a99,99,0,0,0-22.21,4,22.73,22.73,0,0,0-5.08,2.3c-1.61,1-2.41,2-2.41,3.19a2.22,2.22,0,0,0,.72,1.61A8.28,8.28,0,0,0,366,19.1h.33q7.15-.17,10.94-.61l2.27-.11h.89c.7,0,1.06.24,1.06.72q0,.33-3.33,7.77L366.57,54.14c-.49,1.18-1.54,3.46-3.17,6.82l-.28.5a1.74,1.74,0,0,1-1.5,1.06l-3.72.5q-3.93.49-7.82,1.11a64.84,64.84,0,0,0-18.27,5.72q-10.21,4.89-13.94,14.27a16,16,0,0,0-1.22,6,15.1,15.1,0,0,0,.28,2.94,15.49,15.49,0,0,0,7,9.94,20.37,20.37,0,0,0,10.78,3.17,21.23,21.23,0,0,0,5.83-.84Q350,102.61,358,92.5a129.44,129.44,0,0,0,13.1-20.65,2.8,2.8,0,0,1,2.05-1.67l1.56-.22q4.44-.45,8.77-1.06c1.67-.28,3.11-.55,4.36-.82a42.1,42.1,0,0,0-8.75,13.65q-3.66,8.61-3.66,13.94,0,9.33,6.94,13.32a8,8,0,0,0,4.22,1.34q3.27,0,7.44-4.17,3.72-3.89,5.44-5.83a1,1,0,0,1,.72-.33c.37,0,.85.41,1.45,1.22,2.25,2.92,4.72,4.39,7.38,4.39a8.57,8.57,0,0,0,4.83-1.67,29.48,29.48,0,0,0,3.22-3c.68-.7,1.35-1.45,2-2.22,0,.27,0,.55,0,.83a10.26,10.26,0,0,0,.77,4,5.05,5.05,0,0,0,4.72,2.88,5.48,5.48,0,0,0,4.33-1.91,88.08,88.08,0,0,0,5.56-7.86A147.65,147.65,0,0,1,446.52,80l.33-.11s.06,0,.06,0l.22.34a6.16,6.16,0,0,1-.44,1.83,58.25,58.25,0,0,0-3.78,18.32,4.34,4.34,0,0,0,1,2.94,4.67,4.67,0,0,0,3.78,1.84q3.78,0,5.66-5.33a57.36,57.36,0,0,1,11.66-17.72,1.61,1.61,0,0,1,.61-.33l.28-.11s.13.08.28.22q0,.39-1.89,7.61a25,25,0,0,0-.61,5.55c0,.93,0,1.87.11,2.83a10.62,10.62,0,0,0,4.22,7.5,16.21,16.21,0,0,0,10.33,3.22q9.89,0,16.93-10.66A109.65,109.65,0,0,0,505,80.45,21.5,21.5,0,0,0,507.32,72,1.89,1.89,0,0,0,506.54,70.29ZM356.46,74.23Q345.63,93.28,336,95l-1.44.17a10.25,10.25,0,0,1-4.66-1.39,4.37,4.37,0,0,1-2.39-3.89,8.31,8.31,0,0,1,.94-3.44q2.55-4.89,8.72-7.94a62.06,62.06,0,0,1,18.71-6.11,3.76,3.76,0,0,0,.61-.05c.26,0,.42.06.47.19A1,1,0,0,1,357,73,2.4,2.4,0,0,1,356.46,74.23Zm81.62,1.23a.18.18,0,0,1,.17.11.64.64,0,0,0,.12.15,1.3,1.3,0,0,1-.51.12Z"/></g></g></svg>